<svg width="36" height="38" viewBox="0 0 36 38" fill="none" xmlns="http://www.w3.org/2000/svg">
<path d="M18 0.25C8.16275 0.25 0.1875 8.645 0.1875 19C0.1875 29.355 8.16275 37.75 18 37.75C27.8372 37.75 35.8125 29.355 35.8125 19C35.8125 8.645 27.8372 0.25 18 0.25ZM28.9155 30.49C27.4894 31.9906 25.7961 33.1803 23.9325 33.9911C22.069 34.8019 20.0719 35.2178 18.0554 35.215C9.56083 35.215 2.67333 27.9667 2.67333 19.0233C2.67333 10.08 9.55925 2.83167 18.0554 2.83167C26.55 2.83167 33.4375 10.08 33.4375 19.0233C33.4399 21.2258 33.0142 23.4055 32.1867 25.4283L32.2247 25.3233C31.4478 27.2532 30.3241 29.0069 28.9155 30.4883V30.49Z" fill="#15CE3D"/>
</svg>
