<svg width="19" height="13" viewBox="0 0 19 13" fill="none" xmlns="http://www.w3.org/2000/svg">
<path d="M2.13281 7.77344V12H0.15625V0.625H4.50781C5.77865 0.625 6.78646 0.955729 7.53125 1.61719C8.28125 2.27865 8.65625 3.15365 8.65625 4.24219C8.65625 5.35677 8.28906 6.22396 7.55469 6.84375C6.82552 7.46354 5.80208 7.77344 4.48438 7.77344H2.13281ZM2.13281 6.1875H4.50781C5.21094 6.1875 5.7474 6.02344 6.11719 5.69531C6.48698 5.36198 6.67188 4.88281 6.67188 4.25781C6.67188 3.64323 6.48438 3.15365 6.10938 2.78906C5.73438 2.41927 5.21875 2.22917 4.5625 2.21875H2.13281V6.1875ZM14.4844 6.57031L16.7656 0.625H18.9609L15 10.0625L14.6406 10.7734C14.1198 11.7005 13.276 12.1641 12.1094 12.1641L11.2969 12.1172L11.3125 10.5547C11.4375 10.5755 11.6589 10.5859 11.9766 10.5859C12.5391 10.5859 12.9349 10.3464 13.1641 9.86719L13.5703 8.90625L9.67969 0.625H11.8359L14.4844 6.57031Z" fill="#535353"/>
</svg>
